<?xml version="1.0" ?><!DOCTYPE svg  PUBLIC '-//W3C//DTD SVG 1.1//EN'  'http://www.w3.org/Graphics/SVG/1.1/DTD/svg11.dtd'><svg enable-background="new 0 0 80 80" height="80px" id="Icons" version="1.1" viewBox="0 0 80 80" width="80px" xml:space="preserve" xmlns="http://www.w3.org/2000/svg" xmlns:xlink="http://www.w3.org/1999/xlink"><g><path d="M61,20.047h-6V15h-5v5.047H30V15h-5v5.047h-5.919c-2.209,0-4,1.791-4,4V61c0,2.209,1.791,4,4,4H61c2.209,0,4-1.791,4-4   V24.047C65,21.838,63.209,20.047,61,20.047z M60,60H20V35h40V60z M60,30H20v-5h40V30z"/><rect height="5" width="5" x="38" y="40"/><rect height="5" width="5" x="48" y="40"/><rect height="5" width="5" x="38" y="50"/><rect height="5" width="5" x="28" y="50"/></g></svg>